<?xml version="1.0" encoding="utf-8"?>
<!-- Generator: Adobe Illustrator 27.4.1, SVG Export Plug-In . SVG Version: 6.00 Build 0)  -->
<svg version="1.1" id="Layer_1" xmlns="http://www.w3.org/2000/svg" xmlns:xlink="http://www.w3.org/1999/xlink" x="0px" y="0px"
	 viewBox="0 0 720 252" style="enable-background:new 0 0 720 252;" xml:space="preserve">
<style type="text/css">
	.st0{fill:url(#SVGID_1_);}
	.st1{fill:url(#SVGID_00000028301211345852979820000007632397829694599077_);}
	.st2{fill:#929497;}
	.st3{fill:none;stroke:#929497;stroke-width:0.5021;stroke-miterlimit:10;}
	.st4{fill:url(#SVGID_00000094608969002388310040000017116989022646429100_);}
	.st5{fill:#EE4036;}
	.st6{fill:none;stroke:#EE4036;stroke-width:0.5021;stroke-miterlimit:10;}
	.st7{fill:url(#SVGID_00000098932572227472216370000013672560395684846009_);}
	.st8{fill:url(#SVGID_00000078766222452311143300000009137287476662271892_);}
	.st9{fill:#0000FF;}
	
		.st10{fill:none;stroke:url(#SVGID_00000098211837751539639540000002012942307230362518_);stroke-width:0.5021;stroke-miterlimit:10;}
	.st11{fill:#0024F5;}
</style>
<g>
	
		<linearGradient id="SVGID_1_" gradientUnits="userSpaceOnUse" x1="83.6479" y1="-55.8268" x2="46.7452" y2="-6.9093" gradientTransform="matrix(1 0 0 1 -12.82 195.17)">
		<stop  offset="0" style="stop-color:#3FA9F5"/>
		<stop  offset="1" style="stop-color:#0000FF"/>
	</linearGradient>
	<path class="st0" d="M58.8,147.5l10.3-3.5l-49.4-28.7c0,0-10.8,44.1,21.5,76.4c13.3,13.3,27.7,20.5,41.2,24
		c-3-3.7-13.6-17.5-19.7-32C55.6,166.8,58.8,147.5,58.8,147.5z"/>
	
		<linearGradient id="SVGID_00000173140844141726727770000000771945085181522323_" gradientUnits="userSpaceOnUse" x1="-1207.9387" y1="-323.4136" x2="-1244.7964" y2="-274.4358" gradientTransform="matrix(-0.57 0.82 -0.82 -0.57 -843.71 899.36)">
		<stop  offset="0" style="stop-color:#F1F1F2"/>
		<stop  offset="1" style="stop-color:#929497"/>
	</linearGradient>
	<path style="fill:url(#SVGID_00000173140844141726727770000000771945085181522323_);" d="M110.7,80.6l-3,10.5l51.8-24.1
		c0,0-29.9-34.1-74.9-26.2C66,44.2,51.9,51.8,41.3,60.8c4.8-0.3,22.1-1.1,37.5,2.2C96.8,66.9,110.7,80.6,110.7,80.6z"/>
	<path class="st2" d="M20.2,97.6c0.8-1.7,1.8-3.4,2.9-5c21.2-30.3,81.7-17.5,87.5-12.5c0,0-13.9-13.2-31.9-17.1
		c-15.4-3.3-32.7-2.5-37.5-2.2c-5.7,4.9-10.7,10.4-15,16.6C21.4,84.3,17.6,91.9,15,100c-5.4,17.5-3,34.2-3,34.2
		S12.2,112.7,20.2,97.6z"/>
	<path class="st3" d="M158.7,66.9l-50.2,23.3l2.7-9.4l0.1-0.3l-0.2-0.2c-3.8-3.3-28.7-9.5-51.9-6.6c-7.7,1-14.6,2.9-20.4,5.6
		c-6.7,3.2-12,7.6-15.9,13.1c-1.1,1.6-2.1,3.3-2.9,5c-5.1,9.5-7.1,21.7-7.9,29.3c-0.1-6.5,0.4-16.4,3.5-26.5
		c2.6-8,6.3-15.6,11.2-22.4c9.5-13.6,27.2-30.9,58-36.3c10.1-1.8,20.5-1.6,30.5,0.7c8.3,1.9,16.2,5,23.5,9.3
		C146,55.6,152.7,60.8,158.7,66.9"/>
	
		<linearGradient id="SVGID_00000065059172779137492970000003398309459458956476_" gradientUnits="userSpaceOnUse" x1="-1024.7739" y1="972.7706" x2="-1061.978" y2="1021.2211" gradientTransform="matrix(-0.48 -0.88 0.88 -0.48 -1217.88 -286.49)">
		<stop  offset="0" style="stop-color:#F6921E"/>
		<stop  offset="1" style="stop-color:#F05A28"/>
	</linearGradient>
	<path style="fill:url(#SVGID_00000065059172779137492970000003398309459458956476_);" d="M139.7,154.8l-8-7.4l-1.5,57.1
		c0,0,43.9-11.6,56.8-55.4c5.3-18,4.8-34.1,1.4-47.7c-1.8,4.4-8.8,20.3-18.6,32.6C158.2,148.4,139.7,154.8,139.7,154.8z"/>
	<path class="st5" d="M164.8,66.3c1.2,1.5,2.2,3.1,3.2,4.8c17.7,32.5-20.7,80.9-27.8,83.9c0,0,18-6.6,29.5-21
		c9.8-12.3,16.8-28.2,18.6-32.6c-1.8-7.3-4.5-14.3-8.1-20.8c-4-7.5-9.1-14.3-15.2-20.2c-13.3-12.6-29.3-17.9-29.3-17.9
		S154.8,52.3,164.8,66.3z"/>
	<path class="st6" d="M130.6,203.8l1.5-55.3l7.2,6.6l0.2,0.2l0.3-0.1c4.6-2,21.3-21.5,29.1-43.6c2.6-7.4,3.9-14.4,4-20.8
		c0.1-7.4-1.4-14.2-4.6-20c-0.9-1.7-2-3.3-3.2-4.9c-6.3-8.8-16.2-16-22.8-20.1c5.9,2.8,14.6,7.6,22.2,14.9c6,5.9,11.1,12.6,15.1,20
		c7.9,14.6,15.5,38.2,6.7,68.1c-2.9,9.9-7.7,19-14.2,27c-5.4,6.5-11.7,12.2-18.8,16.9C146.4,197.5,138.7,201.2,130.6,203.8
		 M130.1,204.5c0,0,43.9-11.6,56.7-55.5c8.4-28.5,2.2-52-6.7-68.5c-4-7.5-9.1-14.3-15.2-20.2c-13.3-12.6-29.3-17.9-29.3-17.9
		s19.1,9.8,29.1,23.8c1.2,1.5,2.2,3.1,3.2,4.8c17.7,32.5-21.1,80.7-28.2,83.7l-8-7.4L130.1,204.5z"/>
	
		<linearGradient id="SVGID_00000070083714681858970620000001646062770322172564_" gradientUnits="userSpaceOnUse" x1="227.5238" y1="171.6284" x2="252.2913" y2="171.6284" gradientTransform="matrix(1 0 0 -1 -12.82 305)">
		<stop  offset="0" style="stop-color:#F6921E"/>
		<stop  offset="1" style="stop-color:#F05A28"/>
	</linearGradient>
	<path style="fill:url(#SVGID_00000070083714681858970620000001646062770322172564_);" d="M227.2,116.7l-9.9,4.9l-2.6-10.2l16.3-7.4
		h8.5v58.6h-12.3V116.7z"/>
	
		<linearGradient id="SVGID_00000015355154544791119790000008032766196941938605_" gradientUnits="userSpaceOnUse" x1="286.1064" y1="171.6563" x2="701.0542" y2="171.6563" gradientTransform="matrix(1 0 0 -1 -12.82 305)">
		<stop  offset="0" style="stop-color:#3FA9F5"/>
		<stop  offset="1" style="stop-color:#0000FF"/>
	</linearGradient>
	<path style="fill:url(#SVGID_00000015355154544791119790000008032766196941938605_);" d="M273.9,104h44.3v11.5h-31.4v11.9h27.6
		v11.5h-27.6v12.3h31.8v11.5h-44.7V104z M347.3,104h22.9c18.4,0,31.2,12.6,31.2,29.1v0.2c0,16.5-12.7,29.3-31.2,29.3h-22.9V104z
		 M370.2,151c10.5,0,17.7-7.1,17.7-17.5v-0.2c0-10.4-7.1-17.7-17.7-17.7h-10V151H370.2z M438,115.9h-17.8V104h48.6v11.9h-17.8v46.7
		H438L438,115.9z M494.7,104H539v11.5h-31.4v11.9h27.6v11.5h-27.6v12.3h31.8v11.5h-44.6L494.7,104z M562.2,133.5v-0.2
		c0-16.7,12.6-30.3,30.6-30.3c11,0,17.7,3.7,23.1,9l-8.2,9.5c-4.5-4.1-9.1-6.6-15-6.6c-9.9,0-17,8.2-17,18.3v0.2
		c0,10,6.9,18.4,17,18.4c6.7,0,10.8-2.7,15.4-6.9l8.2,8.3c-6,6.4-12.7,10.5-24,10.5C575,163.7,562.2,150.4,562.2,133.5L562.2,133.5z
		 M639.3,104h12.9v23.2H676V104h12.9v58.6H676v-23.5h-23.8v23.5h-12.9V104z"/>
	<path class="st9" d="M124.5,211.9c-1.9,0.3-3.8,0.4-5.7,0.4c-37,0-60.8-57.2-60-64.8c0,0-3.3,19.3,3.9,36.2
		c6.1,14.5,16.7,28.2,19.7,32c7.2,1.9,14.7,2.8,22.2,2.8c8.5,0.1,16.9-1.2,24.9-3.7c17.5-5.6,29.8-17.1,29.8-17.1
		S141.6,209.8,124.5,211.9z"/>
	
		<linearGradient id="SVGID_00000140695401982495063740000012196065748497065627_" gradientUnits="userSpaceOnUse" x1="28.4872" y1="71.0316" x2="173.5305" y2="63.0436" gradientTransform="matrix(1 0 0 -1 -12.61 235.41)">
		<stop  offset="0" style="stop-color:#2483C5"/>
		<stop  offset="1" style="stop-color:#2483C5"/>
	</linearGradient>
	
		<path style="fill:none;stroke:url(#SVGID_00000140695401982495063740000012196065748497065627_);stroke-width:0.5021;stroke-miterlimit:10;" d="
		M19.7,115.3c0,0-10.8,44.1,21.5,76.4c21,21,44.6,26.9,63.3,26.9c8.5,0.1,16.9-1.2,25-3.7c17.5-5.6,29.8-17.1,29.8-17.1
		s-17.8,12.1-34.8,14.2c-1.9,0.3-3.8,0.4-5.7,0.4c-37,0-60.8-57.2-60-64.8l10.3-3.5L19.7,115.3z"/>
	<g>
		<path class="st11" d="M708,105c1.1,0.6,1.9,1.5,2.6,2.5c0.6,1.1,1,2.2,1,3.5c0,1.3-0.3,2.5-0.9,3.6c-0.6,1.1-1.5,1.9-2.6,2.6
			c-1.1,0.6-2.3,0.9-3.6,0.9s-2.5-0.3-3.6-0.9c-1.1-0.6-2-1.5-2.6-2.6c-0.6-1.1-0.9-2.3-0.9-3.6c0-1.3,0.3-2.4,1-3.5
			c0.6-1.1,1.5-1.9,2.6-2.5c1.1-0.6,2.3-0.9,3.6-0.9S706.9,104.4,708,105z M707.3,116c0.9-0.5,1.6-1.2,2.1-2.1
			c0.5-0.9,0.8-1.8,0.8-2.9c0-1-0.3-2-0.8-2.8c-0.5-0.9-1.2-1.5-2.1-2.1c-0.9-0.5-1.8-0.8-2.9-0.8c-1.1,0-2,0.3-2.9,0.8
			c-0.9,0.5-1.6,1.2-2.1,2.1c-0.5,0.9-0.8,1.8-0.8,2.8c0,1.1,0.3,2,0.8,2.9s1.2,1.6,2.1,2.1c0.9,0.5,1.8,0.8,2.9,0.8
			C705.5,116.8,706.4,116.5,707.3,116z M706.4,110.8c-0.2,0.3-0.4,0.5-0.7,0.6c-0.1,0.1-0.1,0.1-0.1,0.2l0.9,2.3l0,0.1
			c0,0.2-0.1,0.3-0.3,0.3h-0.5c-0.2,0-0.3-0.1-0.4-0.3l-0.9-2.3c0-0.1-0.1-0.1-0.1-0.1h-0.6c-0.1,0-0.1,0-0.1,0.1v2.2
			c0,0.2-0.1,0.4-0.4,0.4h-0.4c-0.2,0-0.4-0.1-0.4-0.4v-5.7c0-0.2,0.1-0.4,0.4-0.4h1.9c0.6,0,1,0.2,1.3,0.5c0.3,0.4,0.5,0.8,0.5,1.4
			C706.7,110.2,706.6,110.5,706.4,110.8z M703.6,109v1.6c0,0.1,0,0.1,0.1,0.1h0.9c0.3,0,0.5-0.1,0.6-0.3c0.2-0.2,0.3-0.4,0.3-0.7
			c0-0.3-0.1-0.6-0.3-0.7c-0.2-0.2-0.4-0.3-0.6-0.3h-0.9C703.7,108.8,703.6,108.9,703.6,109z"/>
	</g>
</g>
</svg>
